<svg width="659" height="261" viewBox="0 0 659 261" fill="none" xmlns="http://www.w3.org/2000/svg">
<path d="M0.64 191V186.392L26.272 174.296V17.624L0.64 5.52798V0.919992H107.776C131.584 0.919992 151.744 4.66399 168.256 12.152C184.96 19.64 197.632 29.912 206.272 42.968C215.104 56.024 219.52 70.808 219.52 87.32C219.52 102.296 216.736 116.12 211.168 128.792C205.6 141.464 197.632 152.408 187.264 161.624C177.088 170.84 165.088 178.04 151.264 183.224C137.44 188.408 122.272 191 105.76 191H0.64ZM92.512 16.76H80.992V175.16H96.832C118.336 175.16 134.752 168.056 146.08 153.848C157.408 139.448 163.072 120.248 163.072 96.248C163.072 71.864 157.216 52.568 145.504 38.36C133.984 23.96 116.32 16.76 92.512 16.76ZM310.551 193.88C296.343 193.88 283.767 190.712 272.823 184.376C261.879 177.848 253.335 169.4 247.191 159.032C241.239 148.472 238.263 137.048 238.263 124.76C238.263 112.472 241.239 101.048 247.191 90.488C253.335 79.928 261.879 71.48 272.823 65.144C283.767 58.808 296.343 55.64 310.551 55.64C324.759 55.64 337.335 58.808 348.279 65.144C359.223 71.48 367.671 79.928 373.623 90.488C379.767 101.048 382.839 112.472 382.839 124.76C382.839 137.048 379.767 148.472 373.623 159.032C367.671 169.4 359.223 177.848 348.279 184.376C337.335 190.712 324.759 193.88 310.551 193.88ZM313.143 178.616C317.175 178.616 320.535 176.408 323.223 171.992C325.911 167.576 327.831 161.816 328.983 154.712C330.327 147.416 330.999 139.352 330.999 130.52C330.999 119.768 330.231 109.88 328.695 100.856C327.159 91.832 324.663 84.536 321.207 78.968C317.943 73.4 313.719 70.616 308.535 70.616C304.119 70.616 300.567 72.824 297.879 77.24C295.191 81.464 293.175 87.224 291.831 94.52C290.679 101.624 290.103 109.688 290.103 118.712C290.103 129.272 290.871 139.16 292.407 148.376C294.135 157.4 296.631 164.696 299.895 170.264C303.351 175.832 307.767 178.616 313.143 178.616ZM463.697 145.208C454.673 145.208 446.225 143.768 438.353 140.888C435.665 143.384 434.321 146.456 434.321 150.104C434.321 154.904 436.145 158.36 439.793 160.472C443.441 162.584 449.297 163.64 457.361 163.64H487.313C503.057 163.64 514.673 167.096 522.161 174.008C529.649 180.92 533.393 191.096 533.393 204.536C533.393 213.752 530.129 222.584 523.601 231.032C517.073 239.48 507.761 246.392 495.665 251.768C483.569 257.336 469.265 260.12 452.753 260.12C433.937 260.12 420.401 257.432 412.145 252.056C404.081 246.68 400.049 239.864 400.049 231.608C400.049 225.464 401.777 219.608 405.233 214.04L421.937 203.672V201.944C407.537 195.8 400.337 185.24 400.337 170.264C400.337 165.464 400.913 161.24 402.065 157.592C403.217 153.752 405.425 150.2 408.689 146.936L425.681 136.28V134.552C419.537 130.52 414.737 125.624 411.281 119.864C407.825 113.912 406.097 107.48 406.097 100.568C406.097 92.12 408.593 84.536 413.585 77.816C418.769 71.096 425.681 65.816 434.321 61.976C443.153 57.944 452.945 55.928 463.697 55.928C470.033 55.928 475.985 56.6 481.553 57.944C487.313 59.096 491.921 60.536 495.377 62.264L540.593 58.808V77.528L510.353 74.936L509.201 75.8C512.657 78.872 515.537 82.616 517.841 87.032C520.145 91.256 521.297 95.768 521.297 100.568C521.297 109.016 518.705 116.6 513.521 123.32C508.529 130.04 501.617 135.416 492.785 139.448C484.145 143.288 474.449 145.208 463.697 145.208ZM465.137 132.824C470.321 132.824 474.065 130.136 476.369 124.76C478.865 119.384 480.113 111.608 480.113 101.432C480.113 90.104 478.577 81.752 475.505 76.376C472.625 71 468.689 68.312 463.697 68.312C458.129 68.312 454.097 71.096 451.601 76.664C449.105 82.232 447.857 89.912 447.857 99.704C447.857 111.032 449.297 119.384 452.177 124.76C455.249 130.136 459.569 132.824 465.137 132.824ZM426.833 224.408C426.833 231.32 428.945 236.984 433.169 241.4C437.585 246.008 444.977 248.312 455.345 248.312C467.057 248.312 476.177 245.912 482.705 241.112C489.425 236.504 492.785 230.936 492.785 224.408C492.785 217.88 491.057 213.272 487.601 210.584C484.337 208.088 478.481 206.84 470.033 206.84H449.297C444.881 206.84 440.753 206.552 436.913 205.976C433.649 208.088 431.153 210.584 429.425 213.464C427.697 216.536 426.833 220.184 426.833 224.408ZM604.554 193.88C594.762 193.88 586.218 192.92 578.922 191C571.626 188.888 564.618 186.2 557.898 182.936V148.952H562.506L573.162 163.64C580.65 174.2 590.634 179.48 603.114 179.48C617.13 179.48 624.138 174.968 624.138 165.944C624.138 162.872 623.274 160.28 621.546 158.168C620.01 156.056 616.842 153.848 612.042 151.544C607.434 149.048 600.522 146.072 591.306 142.616C579.786 138.2 571.53 132.824 566.538 126.488C561.546 120.152 559.05 112.856 559.05 104.6C559.05 95.384 561.258 87.128 565.674 79.832C570.282 72.344 576.714 66.488 584.97 62.264C593.226 57.848 602.922 55.64 614.058 55.64C620.202 55.64 626.442 56.216 632.778 57.368C639.306 58.52 645.546 60.632 651.498 63.704V99.704H646.89L638.25 87.32C634.026 81.368 630.09 76.952 626.442 74.072C622.794 71.192 617.898 69.752 611.754 69.752C606.378 69.752 602.058 71.096 598.794 73.784C595.722 76.28 594.186 79.928 594.186 84.728C594.186 87.608 594.858 90.104 596.202 92.216C597.546 94.328 600.33 96.536 604.554 98.84C608.97 101.144 615.594 103.928 624.426 107.192C629.802 109.112 635.082 111.512 640.266 114.392C645.642 117.08 650.058 121.016 653.514 126.2C657.162 131.384 658.986 138.488 658.986 147.512C658.986 156.92 656.49 165.08 651.498 171.992C646.506 178.904 639.882 184.28 631.626 188.12C623.37 191.96 614.346 193.88 604.554 193.88Z" fill="#FCFCFC"/>
</svg>
